<svg width="40" height="40" viewBox="0 0 40 40" fill="none" xmlns="http://www.w3.org/2000/svg">
<path fill-rule="evenodd" clip-rule="evenodd" d="M28.3853 4.11498C28.5017 4.23109 28.594 4.36903 28.6571 4.52089C28.7201 4.67276 28.7525 4.83556 28.7525 4.99998C28.7525 5.16439 28.7201 5.3272 28.6571 5.47906C28.594 5.63092 28.5017 5.76886 28.3853 5.88498L14.2678 20L28.3853 34.115C28.62 34.3497 28.7519 34.668 28.7519 35C28.7519 35.3319 28.62 35.6503 28.3853 35.885C28.1506 36.1197 27.8322 36.2516 27.5003 36.2516C27.1683 36.2516 26.85 36.1197 26.6153 35.885L11.6153 20.885C11.4989 20.7689 11.4065 20.6309 11.3435 20.4791C11.2805 20.3272 11.248 20.1644 11.248 20C11.248 19.8356 11.2805 19.6728 11.3435 19.5209C11.4065 19.369 11.4989 19.2311 11.6153 19.115L26.6153 4.11498C26.7314 3.99857 26.8693 3.90621 27.0212 3.84319C27.1731 3.78018 27.3359 3.74774 27.5003 3.74774C27.6647 3.74774 27.8275 3.78018 27.9794 3.84319C28.1312 3.90621 28.2692 3.99857 28.3853 4.11498Z" fill="white"/>
</svg>
