<svg width="40" height="40" viewBox="0 0 40 40" fill="none" xmlns="http://www.w3.org/2000/svg">
<path fill-rule="evenodd" clip-rule="evenodd" d="M11.6153 4.11498C11.7314 3.99857 11.8693 3.90621 12.0212 3.84319C12.1731 3.78018 12.3359 3.74774 12.5003 3.74774C12.6647 3.74774 12.8275 3.78018 12.9794 3.84319C13.1312 3.90621 13.2692 3.99857 13.3853 4.11498L28.3853 19.115C28.5017 19.2311 28.594 19.369 28.6571 19.5209C28.7201 19.6728 28.7525 19.8356 28.7525 20C28.7525 20.1644 28.7201 20.3272 28.6571 20.4791C28.594 20.6309 28.5017 20.7689 28.3853 20.885L13.3853 35.885C13.1506 36.1197 12.8322 36.2516 12.5003 36.2516C12.1683 36.2516 11.85 36.1197 11.6153 35.885C11.3806 35.6503 11.2487 35.3319 11.2487 35C11.2487 34.668 11.3806 34.3497 11.6153 34.115L25.7328 20L11.6153 5.88498C11.4989 5.76886 11.4065 5.63092 11.3435 5.47906C11.2805 5.3272 11.248 5.16439 11.248 4.99998C11.248 4.83556 11.2805 4.67276 11.3435 4.52089C11.4065 4.36903 11.4989 4.23109 11.6153 4.11498Z" fill="white"/>
</svg>
